<svg width="871" height="381" viewBox="0 0 871 381" fill="none" xmlns="http://www.w3.org/2000/svg">
<path d="M10.729 245.732C9.10336 245.732 7.88416 245.488 7.07136 245C6.25856 244.675 5.85216 244.025 5.85216 243.049C5.85216 241.749 6.33984 240.855 7.3152 240.367C8.45312 239.879 9.83488 239.473 11.4605 239.148C15.1994 238.335 17.8816 237.197 19.5072 235.734C21.1328 234.108 21.9456 231.67 21.9456 228.419V159.656C20.32 159.656 18.4506 159.656 16.3373 159.656C14.224 159.493 11.8669 159.331 9.26592 159.168C8.77824 159.006 8.04672 158.437 7.07136 157.461C6.25856 156.486 5.85216 155.592 5.85216 154.779C5.85216 154.454 6.096 154.21 6.58368 154.048C7.07136 153.723 7.39648 153.479 7.55904 153.316C10.4851 151.853 13.0048 150.553 15.1181 149.415C17.2314 148.277 19.5072 147.139 21.9456 146.001C21.9456 131.858 23.6525 120.073 27.0662 110.644C30.6426 101.216 35.1942 93.7379 40.7213 88.2109C46.2483 82.6838 52.1005 78.7824 58.2778 76.5066C64.455 74.0682 70.2259 72.849 75.5904 72.849C84.6938 72.849 91.44 74.2307 95.8291 76.9942C100.218 79.7578 102.413 83.2528 102.413 87.4794C102.413 90.7306 101.6 93.169 99.9744 94.7945C98.3488 96.4202 96.3981 97.233 94.1222 97.233C92.6592 97.233 91.2774 96.664 89.977 95.5261C88.839 94.3882 87.4573 93.0877 85.8317 91.6246C83.7184 89.5114 81.1174 87.5606 78.0288 85.7725C74.9402 83.8218 70.7136 82.8464 65.3491 82.8464C57.7088 82.8464 51.369 86.1789 46.3296 92.8438C41.4528 99.5088 39.0144 109.75 39.0144 123.568V145.026C39.0144 146.001 39.2582 146.651 39.7459 146.976C40.3962 147.301 41.0464 147.464 41.6966 147.464H72.1766C72.9894 147.464 73.721 147.708 74.3712 148.196C75.0214 148.683 75.3466 149.333 75.3466 150.146C75.3466 151.284 75.184 152.503 74.8589 153.804C74.6963 155.104 74.3712 156.242 73.8835 157.218C73.3958 158.518 72.6643 159.168 71.689 159.168H43.6474C41.6966 159.168 40.3962 159.493 39.7459 160.144C39.2582 160.631 39.0144 161.363 39.0144 162.338V228.419C39.0144 231.67 40.071 234.108 42.1843 235.734C44.2976 237.197 48.6054 238.335 55.1078 239.148C58.8467 239.636 60.7162 240.936 60.7162 243.049C60.7162 244.025 60.3098 244.675 59.497 245C58.6842 245.488 57.465 245.732 55.8394 245.732C50.9626 245.732 46.6547 245.488 42.9158 245C39.177 244.675 35.1942 244.512 30.9677 244.512C28.2042 244.512 25.9283 244.594 24.1402 244.756C22.352 244.919 20.4826 245.081 18.5318 245.244C16.5811 245.569 13.9802 245.732 10.729 245.732ZM120.937 248.658C111.996 248.658 104.193 246.463 97.5284 242.074C90.8634 237.685 85.6615 231.508 81.9226 223.542C78.1837 215.414 76.3143 206.067 76.3143 195.5C76.3143 186.072 78.4276 177.538 82.6541 169.897C87.0433 162.094 92.8141 155.836 99.9668 151.122C107.119 146.407 114.922 144.05 123.375 144.05C129.878 144.05 135.649 145.351 140.688 147.952C145.727 150.553 149.629 154.21 152.392 158.924C155.318 163.476 156.782 168.759 156.782 174.774C156.782 179.813 154.343 182.333 149.466 182.333H98.0161C95.7402 182.333 94.1146 182.983 93.1393 184.284C92.3265 185.422 91.9201 187.779 91.9201 191.355C91.9201 199.158 93.6269 206.311 97.0407 212.813C100.454 219.153 105.006 224.274 110.696 228.175C116.385 231.914 122.644 233.783 129.471 233.783C134.348 233.783 138.737 232.889 142.639 231.101C146.703 229.15 150.279 226.387 153.368 222.811C154.018 221.998 154.506 221.51 154.831 221.348C155.156 221.022 155.562 220.86 156.05 220.86C157.35 220.86 158.001 221.673 158.001 223.298C158.001 226.387 156.538 229.801 153.612 233.54C151.173 236.628 148.247 239.31 144.833 241.586C141.42 243.862 137.681 245.569 133.617 246.707C129.553 248.007 125.326 248.658 120.937 248.658ZM98.5037 174.774H120.693C124.595 174.774 127.927 174.693 130.691 174.53C133.454 174.368 136.136 174.043 138.737 173.555C139.55 173.392 140.038 172.905 140.2 172.092C140.526 171.116 140.688 169.816 140.688 168.19C140.688 163.476 138.575 159.493 134.348 156.242C130.284 152.828 125.407 151.122 119.718 151.122C115.979 151.122 112.24 152.26 108.501 154.535C104.762 156.649 101.674 159.331 99.2353 162.582C96.7969 165.833 95.5777 169.084 95.5777 172.336C95.5777 173.961 96.553 174.774 98.5037 174.774ZM175.959 245.732C174.334 245.732 173.114 245.488 172.302 245C171.489 244.675 171.082 244.025 171.082 243.049C171.082 241.749 171.57 240.936 172.545 240.611C173.521 240.123 174.902 239.636 176.691 239.148C179.779 238.335 182.055 237.197 183.518 235.734C185.144 234.108 185.957 232.158 185.957 229.882V177.456C185.957 173.067 185.306 169.247 184.006 165.996C182.705 162.745 180.023 160.713 175.959 159.9C175.309 159.737 174.74 159.331 174.252 158.681C173.765 158.03 173.521 157.38 173.521 156.73C173.521 155.104 174.252 154.129 175.715 153.804C179.942 152.503 184.331 150.634 188.883 148.196C193.597 145.595 197.254 143.481 199.855 141.856C200.831 141.205 201.562 140.799 202.05 140.636C202.7 140.311 203.188 140.149 203.513 140.149C204.326 140.149 204.732 140.718 204.732 141.856C204.732 142.343 204.651 143.563 204.488 145.513C204.488 147.464 204.407 149.74 204.245 152.341C204.245 154.942 204.163 157.543 204.001 160.144C204.001 160.469 204.163 160.631 204.488 160.631C207.089 157.38 209.934 154.535 213.023 152.097C216.274 149.659 219.525 147.708 222.776 146.245C226.19 144.782 229.441 144.05 232.53 144.05C235.944 144.05 238.707 144.782 240.821 146.245C243.096 147.708 244.234 149.577 244.234 151.853C244.234 153.479 243.747 155.267 242.771 157.218C241.958 159.168 240.821 160.875 239.358 162.338C237.894 163.801 236.35 164.533 234.725 164.533C233.749 164.533 232.693 164.37 231.555 164.045C230.417 163.557 229.198 162.988 227.897 162.338C226.597 161.851 225.296 161.363 223.996 160.875C222.695 160.388 221.395 160.144 220.094 160.144C216.193 160.144 212.373 161.525 208.634 164.289C205.057 167.052 203.269 172.498 203.269 180.626V229.882C203.269 231.995 204.407 233.783 206.683 235.246C208.959 236.547 212.129 237.847 216.193 239.148C217.981 239.636 219.363 240.123 220.338 240.611C221.313 241.099 221.801 241.911 221.801 243.049C221.801 244.837 220.175 245.732 216.924 245.732C212.047 245.732 208.309 245.488 205.708 245C203.269 244.675 199.937 244.512 195.71 244.512C192.947 244.512 190.671 244.594 188.883 244.756C187.257 244.919 185.469 245.081 183.518 245.244C181.73 245.569 179.21 245.732 175.959 245.732ZM256.179 245.732C254.716 245.732 253.496 245.488 252.521 245C251.708 244.675 251.302 244.025 251.302 243.049C251.302 241.749 251.79 240.936 252.765 240.611C253.74 240.123 255.122 239.636 256.91 239.148C259.349 238.498 261.706 237.604 263.982 236.466C266.257 235.328 267.395 233.133 267.395 229.882V177.456C267.395 173.067 266.908 169.328 265.932 166.24C265.119 163.151 262.6 161.038 258.373 159.9C257.723 159.575 257.154 159.25 256.666 158.924C256.179 158.437 255.935 157.705 255.935 156.73C255.935 154.942 256.666 153.966 258.129 153.804C263.819 152.341 268.452 150.553 272.028 148.439C275.605 146.326 279.1 143.969 282.513 141.368C283.001 141.043 283.407 140.799 283.733 140.636C284.22 140.311 284.708 140.149 285.196 140.149C285.521 140.149 285.765 140.311 285.927 140.636C286.252 140.962 286.415 141.368 286.415 141.856C286.415 142.994 286.171 145.351 285.683 148.927C285.358 152.341 285.196 155.186 285.196 157.461C285.196 158.112 285.196 158.762 285.196 159.412C285.358 159.9 285.521 160.225 285.683 160.388C291.373 155.023 297.388 150.959 303.727 148.196C310.23 145.432 317.301 144.05 324.942 144.05C332.907 144.05 339.491 147.301 344.693 153.804C349.895 160.306 352.495 168.353 352.495 177.944V229.882C352.495 233.133 353.633 235.328 355.909 236.466C358.185 237.441 360.542 238.335 362.981 239.148C364.281 239.636 365.5 240.204 366.638 240.855C367.939 241.342 368.589 242.236 368.589 243.537C368.589 244.512 368.02 245.081 366.882 245.244C365.744 245.569 364.687 245.732 363.712 245.732C360.461 245.732 357.941 245.569 356.153 245.244C354.365 245.081 352.658 244.919 351.032 244.756C349.407 244.594 347.131 244.512 344.205 244.512C341.441 244.512 339.166 244.594 337.377 244.756C335.589 244.919 333.72 245.081 331.769 245.244C329.981 245.569 327.461 245.732 324.21 245.732C323.397 245.732 322.341 245.569 321.04 245.244C319.902 245.081 319.333 244.512 319.333 243.537C319.333 242.236 319.902 241.342 321.04 240.855C322.341 240.204 323.641 239.636 324.942 239.148C327.38 238.335 329.737 237.441 332.013 236.466C334.289 235.328 335.427 233.133 335.427 229.882V178.676C335.427 171.523 333.395 165.996 329.331 162.094C325.429 158.03 320.146 155.917 313.481 155.755C307.629 155.755 302.508 156.73 298.119 158.681C293.73 160.469 289.829 162.745 286.415 165.508C285.765 166.158 285.277 167.052 284.952 168.19C284.627 169.166 284.464 170.141 284.464 171.116V229.882C284.464 233.133 285.602 235.328 287.878 236.466C290.154 237.604 292.511 238.498 294.949 239.148C298.688 240.123 300.558 241.424 300.558 243.049C300.558 244.025 300.151 244.675 299.338 245C298.526 245.488 297.306 245.732 295.681 245.732C292.43 245.732 289.829 245.569 287.878 245.244C286.09 245.081 284.383 244.919 282.757 244.756C281.132 244.594 278.856 244.512 275.93 244.512C273.166 244.512 270.89 244.594 269.102 244.756C267.477 244.919 265.688 245.081 263.738 245.244C261.95 245.569 259.43 245.732 256.179 245.732ZM406.706 248.414C405.08 248.414 402.561 247.845 399.147 246.707C395.896 245.732 392.726 244.594 389.637 243.293C386.711 241.83 385.004 240.611 384.517 239.636C383.704 237.847 382.972 235.653 382.322 233.052C381.834 230.288 381.509 227.525 381.347 224.761C381.347 223.948 381.753 223.38 382.566 223.054C383.379 222.729 384.273 222.567 385.248 222.567C387.361 222.567 388.499 223.136 388.662 224.274C389.312 227.037 390.694 229.719 392.807 232.32C395.083 234.759 397.684 236.791 400.61 238.416C403.699 240.042 406.625 240.855 409.388 240.855C415.728 240.855 420.117 239.229 422.556 235.978C425.157 232.727 426.457 228.825 426.457 224.274C426.457 219.722 425.482 216.227 423.531 213.788C421.743 211.188 419.386 209.074 416.46 207.449C413.696 205.66 410.851 203.791 407.925 201.84C404.024 199.239 400.366 196.72 396.952 194.281C393.539 191.843 390.775 188.998 388.662 185.747C386.711 182.496 385.736 178.269 385.736 173.067C385.736 165.915 387.524 159.9 391.1 155.023C394.839 150.146 400.529 146.895 408.169 145.269C406.706 144.782 405.324 143.319 404.024 140.88C402.886 138.279 401.911 135.272 401.098 131.858C400.448 128.444 400.122 125.193 400.122 122.105C400.122 114.952 402.154 108.45 406.218 102.597C410.282 96.5827 415.972 91.7872 423.287 88.2109C430.602 84.6346 439.137 82.8464 448.89 82.8464C452.467 82.8464 456.368 83.4966 460.595 84.7971C464.984 86.0976 469.129 88.0483 473.031 90.6493C477.095 93.2502 480.346 96.5014 482.784 100.403C485.385 104.142 486.686 108.612 486.686 113.814L486.442 144.05C486.442 145.188 486.929 146.082 487.905 146.732C488.88 147.22 490.181 147.464 491.806 147.464H520.579C521.23 147.464 521.717 148.114 522.042 149.415C522.368 150.553 522.53 151.853 522.53 153.316C522.53 154.779 522.368 156.161 522.042 157.461C521.717 158.599 521.23 159.168 520.579 159.168H495.464C491.075 159.168 488.311 159.331 487.173 159.656C486.198 159.819 485.71 160.794 485.71 162.582V218.909C485.71 223.786 487.417 228.094 490.831 231.833C494.407 235.572 498.39 237.441 502.779 237.441C508.144 237.441 512.045 236.872 514.483 235.734C516.922 234.596 519.116 233.296 521.067 231.833C521.88 231.345 522.449 231.508 522.774 232.32C523.262 233.133 523.505 234.027 523.505 235.003C523.505 235.328 523.424 235.653 523.262 235.978C523.262 236.14 523.18 236.384 523.018 236.709C522.368 237.847 520.579 239.392 517.653 241.342C514.727 243.131 511.232 244.756 507.168 246.219C503.104 247.682 498.959 248.414 494.732 248.414C487.905 248.414 481.809 246.219 476.444 241.83C471.242 237.278 468.641 231.589 468.641 224.761V163.314C468.641 160.55 466.935 159.168 463.521 159.168H460.595C460.107 159.006 459.538 158.437 458.888 157.461C458.4 156.486 458.156 155.592 458.156 154.779C458.156 153.966 458.4 153.479 458.888 153.316C464.09 151.203 467.666 148.602 469.617 145.513C471.73 142.262 473.031 139.417 473.518 136.979C474.006 134.703 474.25 132.346 474.25 129.908C474.412 127.469 474.494 125.112 474.494 122.836C474.494 117.147 473.193 111.863 470.592 106.987C468.154 101.947 464.74 97.8832 460.351 94.7945C456.124 91.7059 451.166 90.1616 445.477 90.1616C438.974 90.1616 432.797 91.6246 426.945 94.5507C421.255 97.3142 416.622 101.216 413.046 106.255C409.47 111.132 407.681 116.74 407.681 123.08C407.681 126.006 408.007 129.095 408.657 132.346C409.47 135.597 410.77 138.361 412.558 140.636C414.346 142.912 416.866 144.05 420.117 144.05C424.994 144.05 428.977 144.538 432.065 145.513C435.154 146.489 437.267 147.627 438.405 148.927C439.706 152.828 440.6 156.242 441.088 159.168C441.575 162.094 441.819 165.264 441.819 168.678C441.819 169.003 441.656 169.247 441.331 169.41C441.169 169.572 440.925 169.653 440.6 169.653C439.299 169.653 437.674 169.166 435.723 168.19C433.935 167.052 432.878 165.915 432.553 164.777C431.903 160.062 429.952 157.055 426.701 155.755C423.45 154.292 420.524 153.56 417.923 153.56C413.208 153.56 409.144 154.942 405.731 157.705C402.48 160.306 400.854 163.72 400.854 167.947C400.854 171.198 401.992 174.286 404.268 177.212C406.706 180.139 409.551 182.821 412.802 185.259C416.053 187.535 418.979 189.404 421.58 190.868C424.344 192.331 427.432 194.281 430.846 196.72C434.26 199.158 437.186 202.247 439.624 205.986C442.063 209.562 443.282 213.951 443.282 219.153C443.282 224.68 442.144 229.719 439.868 234.271C437.755 238.66 434.016 242.155 428.652 244.756C423.45 247.195 416.135 248.414 406.706 248.414ZM582.543 248.414C573.44 248.414 565.231 246.3 557.915 242.074C550.6 237.847 544.748 232.076 540.359 224.761C536.132 217.284 534.019 208.83 534.019 199.402C534.019 192.574 535.32 185.909 537.921 179.407C540.684 172.905 544.504 166.971 549.381 161.607C554.258 156.242 559.947 152.016 566.45 148.927C572.952 145.676 579.942 144.05 587.42 144.05C596.849 144.05 605.302 146.326 612.779 150.878C620.42 155.429 626.435 161.444 630.824 168.922C635.375 176.237 637.651 184.284 637.651 193.062C637.651 202.491 635.538 211.431 631.311 219.884C627.247 228.338 621.151 235.246 613.023 240.611C604.895 245.813 594.735 248.414 582.543 248.414ZM587.664 241.099C593.191 241.099 598.149 240.042 602.538 237.929C606.927 235.815 610.341 232.402 612.779 227.687C614.73 223.948 616.031 219.397 616.681 214.032C617.331 208.668 617.656 203.628 617.656 198.914C617.656 191.111 616.193 183.634 613.267 176.481C610.504 169.166 606.521 163.232 601.319 158.681C596.28 153.966 590.265 151.609 583.275 151.609C578.886 151.609 574.903 152.341 571.327 153.804C567.913 155.104 564.743 157.624 561.817 161.363C558.566 165.427 556.452 170.385 555.477 176.237C554.502 182.089 554.014 187.941 554.014 193.794C554.014 201.759 555.477 209.399 558.403 216.715C561.329 223.867 565.312 229.719 570.351 234.271C575.391 238.823 581.162 241.099 587.664 241.099ZM656.943 245.732C655.48 245.732 654.261 245.488 653.285 245C652.473 244.675 652.066 244.025 652.066 243.049C652.066 241.749 652.554 240.936 653.529 240.611C654.505 240.123 655.886 239.636 657.675 239.148C660.113 238.498 662.47 237.604 664.746 236.466C667.022 235.328 668.16 233.133 668.16 229.882V177.456C668.16 173.067 667.672 169.328 666.697 166.24C665.884 163.151 663.364 161.038 659.138 159.9C658.487 159.575 657.918 159.25 657.431 158.924C656.943 158.437 656.699 157.705 656.699 156.73C656.699 154.942 657.431 153.966 658.894 153.804C664.583 152.341 669.216 150.553 672.793 148.439C676.369 146.326 679.864 143.969 683.278 141.368C683.765 141.043 684.172 140.799 684.497 140.636C684.985 140.311 685.472 140.149 685.96 140.149C686.285 140.149 686.529 140.311 686.692 140.636C687.017 140.962 687.179 141.368 687.179 141.856C687.179 142.994 686.935 145.351 686.448 148.927C686.123 152.341 685.96 155.186 685.96 157.461C685.96 158.112 685.96 158.762 685.96 159.412C686.123 159.9 686.285 160.225 686.448 160.388C692.137 155.023 698.152 150.959 704.492 148.196C710.994 145.432 718.066 144.05 725.706 144.05C733.671 144.05 740.255 147.301 745.457 153.804C750.659 160.306 753.26 168.353 753.26 177.944V229.882C753.26 233.133 754.398 235.328 756.674 236.466C758.949 237.441 761.307 238.335 763.745 239.148C765.045 239.636 766.265 240.204 767.403 240.855C768.703 241.342 769.353 242.236 769.353 243.537C769.353 244.512 768.784 245.081 767.646 245.244C766.509 245.569 765.452 245.732 764.477 245.732C761.225 245.732 758.706 245.569 756.917 245.244C755.129 245.081 753.422 244.919 751.797 244.756C750.171 244.594 747.895 244.512 744.969 244.512C742.206 244.512 739.93 244.594 738.142 244.756C736.354 244.919 734.484 245.081 732.533 245.244C730.745 245.569 728.226 245.732 724.974 245.732C724.162 245.732 723.105 245.569 721.805 245.244C720.667 245.081 720.098 244.512 720.098 243.537C720.098 242.236 720.667 241.342 721.805 240.855C723.105 240.204 724.405 239.636 725.706 239.148C728.144 238.335 730.501 237.441 732.777 236.466C735.053 235.328 736.191 233.133 736.191 229.882V178.676C736.191 171.523 734.159 165.996 730.095 162.094C726.194 158.03 720.91 155.917 714.245 155.755C708.393 155.755 703.273 156.73 698.884 158.681C694.494 160.469 690.593 162.745 687.179 165.508C686.529 166.158 686.041 167.052 685.716 168.19C685.391 169.166 685.229 170.141 685.229 171.116V229.882C685.229 233.133 686.366 235.328 688.642 236.466C690.918 237.604 693.275 238.498 695.714 239.148C699.453 240.123 701.322 241.424 701.322 243.049C701.322 244.025 700.916 244.675 700.103 245C699.29 245.488 698.071 245.732 696.445 245.732C693.194 245.732 690.593 245.569 688.642 245.244C686.854 245.081 685.147 244.919 683.522 244.756C681.896 244.594 679.62 244.512 676.694 244.512C673.931 244.512 671.655 244.594 669.867 244.756C668.241 244.919 666.453 245.081 664.502 245.244C662.714 245.569 660.194 245.732 656.943 245.732ZM826.978 248.658C818.037 248.658 810.234 246.463 803.569 242.074C796.904 237.685 791.702 231.508 787.963 223.542C784.224 215.414 782.355 206.067 782.355 195.5C782.355 186.072 784.468 177.538 788.695 169.897C793.084 162.094 798.855 155.836 806.007 151.122C813.16 146.407 820.963 144.05 829.416 144.05C835.918 144.05 841.689 145.351 846.729 147.952C851.768 150.553 855.669 154.21 858.433 158.924C861.359 163.476 862.822 168.759 862.822 174.774C862.822 179.813 860.384 182.333 855.507 182.333H804.057C801.781 182.333 800.155 182.983 799.18 184.284C798.367 185.422 797.961 187.779 797.961 191.355C797.961 199.158 799.668 206.311 803.081 212.813C806.495 219.153 811.047 224.274 816.736 228.175C822.426 231.914 828.685 233.783 835.512 233.783C840.389 233.783 844.778 232.889 848.679 231.101C852.743 229.15 856.32 226.387 859.408 222.811C860.059 221.998 860.546 221.51 860.871 221.348C861.197 221.022 861.603 220.86 862.091 220.86C863.391 220.86 864.041 221.673 864.041 223.298C864.041 226.387 862.578 229.801 859.652 233.54C857.214 236.628 854.288 239.31 850.874 241.586C847.46 243.862 843.721 245.569 839.657 246.707C835.593 248.007 831.367 248.658 826.978 248.658ZM804.544 174.774H826.734C830.635 174.774 833.968 174.693 836.731 174.53C839.495 174.368 842.177 174.043 844.778 173.555C845.591 173.392 846.078 172.905 846.241 172.092C846.566 171.116 846.729 169.816 846.729 168.19C846.729 163.476 844.615 159.493 840.389 156.242C836.325 152.828 831.448 151.122 825.758 151.122C822.02 151.122 818.281 152.26 814.542 154.535C810.803 156.649 807.714 159.331 805.276 162.582C802.837 165.833 801.618 169.084 801.618 172.336C801.618 173.961 802.594 174.774 804.544 174.774Z" fill="currentColor"></path>
<path d="M19.1403 350.918C18.2774 350.918 17.5804 350.785 17.0494 350.519C16.5847 350.32 16.3524 350.055 16.3524 349.723C16.3524 349.126 16.6511 348.727 17.2485 348.528C17.9123 348.263 18.3438 348.097 18.5429 348.03C21.1317 347.499 23.123 346.736 24.517 345.74C25.9109 344.678 26.6079 343.052 26.6079 340.861V294.662C26.6079 293.069 26.442 291.907 26.1101 291.177C25.7782 290.38 25.1808 289.816 24.3178 289.484C23.4549 289.086 22.1937 288.754 20.5343 288.489C18.3438 288.09 17.2485 287.427 17.2485 286.497C17.2485 286.099 17.514 285.833 18.0451 285.701C18.5761 285.502 19.2731 285.402 20.136 285.402C21.9282 285.402 23.3553 285.435 24.4174 285.502C25.5458 285.568 26.6079 285.634 27.6036 285.701C28.5993 285.701 29.8273 285.701 31.2876 285.701C32.9471 285.701 34.3742 285.701 35.569 285.701C36.7638 285.634 37.9918 285.568 39.253 285.502C40.5142 285.435 42.0409 285.402 43.8332 285.402C44.6961 285.402 45.3931 285.502 45.9241 285.701C46.4551 285.833 46.7206 286.099 46.7206 286.497C46.7206 286.962 46.4551 287.36 45.9241 287.692C45.3931 288.024 44.5633 288.289 43.4349 288.489C40.9789 288.953 38.888 289.517 37.1621 290.181C35.4363 290.779 34.5733 292.04 34.5733 293.965V340.861C34.5733 342.919 35.038 344.446 35.9673 345.442C36.8966 346.437 38.9875 346.935 42.2401 346.935H54.5865C56.3787 346.935 57.9386 346.67 59.2662 346.138C60.6602 345.541 61.689 344.944 62.3528 344.346C63.6804 343.218 64.6429 342.222 65.2403 341.359C65.9041 340.43 66.6674 339.069 67.5304 337.277C67.6631 336.879 67.9286 336.281 68.3269 335.485C68.7916 334.688 69.2562 334.29 69.7208 334.29C70.1191 334.29 70.4178 334.489 70.617 334.887C70.8161 335.286 70.9157 335.684 70.9157 336.082C70.9157 336.149 70.8825 336.248 70.8161 336.381C70.8161 336.447 70.8161 336.514 70.8161 336.58C70.3514 338.306 69.92 339.866 69.5217 341.26C69.1898 342.654 68.8911 343.981 68.6256 345.242C68.4265 346.504 68.2605 347.831 68.1278 349.225C68.0614 349.69 67.9286 350.088 67.7295 350.42C67.5967 350.752 67.2648 350.918 66.7338 350.918C63.4149 350.918 60.2287 350.885 57.1753 350.818C54.1219 350.752 51.168 350.685 48.3137 350.619C45.5258 350.619 42.8375 350.586 40.2487 350.519C37.66 350.453 35.1044 350.42 32.582 350.42C30.9225 350.42 29.0307 350.453 26.9066 350.519C24.8489 350.586 23.0235 350.652 21.4304 350.719C19.9037 350.851 19.1403 350.918 19.1403 350.918ZM82.464 350.918C81.6011 350.918 80.9041 350.785 80.3731 350.519C79.842 350.32 79.5765 350.022 79.5765 349.623C79.5765 349.159 79.842 348.76 80.3731 348.429C80.9705 348.03 81.8002 347.665 82.8623 347.333C84.5881 346.802 86.1812 346.006 87.6415 344.944C89.1019 343.882 90.3631 342.123 91.4251 339.667C93.2837 335.418 94.9764 331.436 96.5031 327.718C98.0962 324.001 99.5897 320.35 100.984 316.766C102.378 313.181 103.805 309.464 105.265 305.614C106.792 301.698 108.385 297.45 110.044 292.87C110.376 291.94 110.675 291.011 110.94 290.082C111.206 289.152 111.372 288.157 111.438 287.095C112.036 286.896 112.633 286.696 113.231 286.497C113.828 286.298 114.425 285.999 115.023 285.601C115.62 285.203 116.018 284.605 116.218 283.809C116.483 283.012 116.715 282.481 116.915 282.216C116.981 282.149 117.047 282.116 117.114 282.116C117.246 282.116 117.346 282.183 117.412 282.315C117.545 282.581 117.645 282.913 117.711 283.311C117.844 283.709 117.977 284.108 118.109 284.506C119.702 289.551 121.362 294.695 123.088 299.939C124.814 305.183 126.473 310.261 128.066 315.173C129.726 320.018 131.219 324.399 132.547 328.316C133.941 332.166 135.036 335.286 135.832 337.675C136.762 340.33 137.757 342.322 138.819 343.649C139.882 344.977 140.977 345.906 142.105 346.437C143.3 346.968 144.561 347.367 145.889 347.632C147.017 347.831 147.847 348.163 148.378 348.628C148.909 349.026 149.175 349.457 149.175 349.922C149.175 350.32 148.909 350.586 148.378 350.719C147.847 350.851 147.15 350.918 146.287 350.918C145.358 350.918 144.097 350.851 142.504 350.719C140.91 350.652 139.218 350.553 137.426 350.42C135.633 350.354 133.974 350.32 132.447 350.32C131.186 350.32 129.892 350.32 128.564 350.32C127.236 350.32 126.008 350.354 124.88 350.42C123.752 350.42 122.789 350.42 121.992 350.42C121.13 350.42 120.433 350.32 119.902 350.121C119.371 349.922 119.105 349.623 119.105 349.225C119.105 348.76 119.437 348.362 120.101 348.03C120.764 347.698 121.528 347.466 122.391 347.333C124.581 347.001 126.141 346.437 127.07 345.641C128 344.844 128.464 343.915 128.464 342.853C128.464 341.857 128.232 340.43 127.767 338.571C127.369 336.646 126.871 334.622 126.274 332.498C125.677 330.307 125.112 328.382 124.581 326.723C124.449 326.192 124.183 325.893 123.785 325.827C123.453 325.694 122.822 325.627 121.893 325.627H103.075C102.809 325.627 102.51 325.76 102.178 326.026C101.913 326.225 101.647 326.69 101.382 327.42C101.183 328.083 100.851 329.146 100.386 330.606C99.9216 332 99.4569 333.493 98.9923 335.086C98.5276 336.68 98.1294 338.107 97.7975 339.368C97.4656 340.629 97.2996 341.426 97.2996 341.758C97.2996 343.218 97.8638 344.446 98.9923 345.442C100.121 346.371 101.481 347.035 103.075 347.433C105.265 348.03 106.36 348.694 106.36 349.424C106.36 349.823 106.095 350.121 105.564 350.32C105.033 350.453 104.336 350.519 103.473 350.519C102.61 350.519 101.349 350.486 99.6893 350.42C98.0298 350.354 96.2708 350.32 94.4122 350.32C92.2217 350.32 90.0975 350.42 88.0398 350.619C85.9821 350.818 84.1235 350.918 82.464 350.918ZM105.763 322.342H121.196C122.125 322.342 122.59 322.176 122.59 321.844C122.59 321.711 122.557 321.578 122.49 321.446C122.49 321.246 122.457 321.047 122.391 320.848L114.624 296.554C114.226 295.359 113.927 294.761 113.728 294.761C113.596 294.761 113.33 295.326 112.932 296.454L103.871 320.848C103.738 321.246 103.672 321.512 103.672 321.645C103.672 321.977 103.838 322.176 104.17 322.242C104.568 322.309 105.099 322.342 105.763 322.342ZM176.131 352.013C175.998 352.013 175.799 351.714 175.534 351.117C175.268 350.519 175.003 349.889 174.737 349.225L153.23 295.259C152.434 293.533 151.471 292.139 150.343 291.077C149.214 289.949 147.787 289.152 146.062 288.688C144.999 288.356 144.17 288.024 143.572 287.692C143.041 287.36 142.776 286.962 142.776 286.497C142.776 286.099 143.041 285.833 143.572 285.701C144.103 285.502 144.8 285.402 145.663 285.402C147.19 285.402 148.617 285.468 149.945 285.601C151.339 285.668 152.865 285.701 154.525 285.701C156.383 285.701 158.142 285.668 159.802 285.601C161.461 285.535 162.789 285.502 163.785 285.502C164.648 285.502 165.345 285.601 165.876 285.8C166.407 285.933 166.672 286.199 166.672 286.597C166.672 287.061 166.407 287.427 165.876 287.692C165.345 287.958 164.515 288.256 163.386 288.588C162.59 288.787 162.059 289.219 161.793 289.883C161.528 290.48 161.395 291.144 161.395 291.874C161.395 292.936 161.528 293.932 161.793 294.861C162.059 295.724 162.192 296.155 162.192 296.155C163.718 300.005 165.112 303.523 166.373 306.71C167.635 309.896 168.863 312.982 170.057 315.969C171.319 318.89 172.613 321.91 173.941 325.03C175.334 328.083 176.861 331.502 178.521 335.286C178.853 336.016 179.118 336.348 179.317 336.281C179.583 336.215 179.815 335.916 180.014 335.385L187.78 316.169C187.98 315.637 188.112 315.206 188.179 314.874C188.312 314.476 188.378 314.144 188.378 313.878C188.378 313.48 188.312 313.082 188.179 312.684C188.046 312.219 187.847 311.655 187.581 310.991L181.906 296.852C181.043 294.728 179.682 292.969 177.824 291.575C175.965 290.115 174.173 289.152 172.447 288.688C171.385 288.356 170.555 288.024 169.958 287.692C169.427 287.36 169.161 286.962 169.161 286.497C169.161 286.099 169.427 285.833 169.958 285.701C170.489 285.502 171.186 285.402 172.049 285.402C173.111 285.402 174.106 285.435 175.036 285.502C176.031 285.568 177.027 285.634 178.023 285.701C179.085 285.701 180.213 285.701 181.408 285.701C182.935 285.701 184.329 285.668 185.59 285.601C186.918 285.535 188.079 285.502 189.075 285.502C189.938 285.502 190.635 285.601 191.166 285.8C191.697 285.933 191.962 286.199 191.962 286.597C191.962 287.128 191.63 287.559 190.967 287.891C190.303 288.223 189.606 288.588 188.876 288.986C188.212 289.385 187.88 289.982 187.88 290.779C187.88 290.911 187.88 291.044 187.88 291.177C187.946 291.31 188.013 291.442 188.079 291.575C188.212 291.841 188.444 292.505 188.776 293.567C189.174 294.562 189.606 295.691 190.071 296.952C190.602 298.213 191.099 299.408 191.564 300.536C192.029 301.598 192.361 302.362 192.56 302.826C192.892 303.623 193.157 304.054 193.356 304.121C193.622 304.121 193.954 303.689 194.352 302.826C194.883 301.632 195.414 300.271 195.945 298.744C196.542 297.217 197.04 295.79 197.439 294.463C197.903 293.069 198.202 292.106 198.335 291.575C198.401 291.376 198.434 291.144 198.434 290.878C198.434 290.082 198.136 289.484 197.538 289.086C196.941 288.688 196.31 288.323 195.646 287.991C195.049 287.593 194.75 287.128 194.75 286.597C194.75 286.199 195.016 285.933 195.547 285.8C196.078 285.601 196.775 285.502 197.638 285.502C199.098 285.502 200.094 285.535 200.625 285.601C201.156 285.668 201.886 285.701 202.815 285.701C203.944 285.701 204.906 285.668 205.703 285.601C206.499 285.468 207.495 285.402 208.69 285.402C209.553 285.402 210.25 285.502 210.781 285.701C211.312 285.833 211.577 286.099 211.577 286.497C211.577 286.962 211.312 287.36 210.781 287.692C210.25 287.958 209.42 288.223 208.292 288.489C206.167 288.953 204.707 289.517 203.911 290.181C203.18 290.845 202.384 291.874 201.521 293.268C201.189 293.865 200.691 294.861 200.027 296.255C199.43 297.649 198.766 299.176 198.036 300.835C197.372 302.495 196.775 304.054 196.244 305.515C196.045 305.979 195.846 306.643 195.646 307.506C195.514 308.369 195.514 308.966 195.646 309.298L205.902 335.684C206.035 336.016 206.201 336.115 206.4 335.983C206.599 335.85 206.798 335.551 206.997 335.086C208.657 330.705 210.515 325.096 212.573 318.259C214.697 311.422 216.888 304.187 219.144 296.554C219.344 295.956 219.476 295.359 219.543 294.761C219.675 294.098 219.742 293.5 219.742 292.969C219.742 291.974 219.51 291.077 219.045 290.281C218.647 289.484 217.883 288.953 216.755 288.688C216.091 288.489 215.361 288.223 214.564 287.891C213.834 287.559 213.469 287.161 213.469 286.696C213.469 286.298 213.735 286.033 214.266 285.9C214.797 285.701 215.494 285.601 216.357 285.601C217.684 285.601 218.879 285.634 219.941 285.701C221.069 285.701 222.264 285.701 223.525 285.701C225.185 285.701 226.778 285.668 228.305 285.601C229.831 285.468 231.225 285.402 232.487 285.402C233.349 285.402 234.046 285.502 234.577 285.701C235.108 285.833 235.374 286.099 235.374 286.497C235.374 286.962 235.108 287.36 234.577 287.692C234.046 287.958 233.217 288.223 232.088 288.489C230.495 288.821 229.134 289.517 228.006 290.58C226.944 291.575 226.081 292.704 225.417 293.965C224.82 295.16 224.322 296.255 223.924 297.251L206.3 349.325C206.234 349.59 206.035 350.022 205.703 350.619C205.371 351.283 205.039 351.615 204.707 351.615C204.442 351.615 204.143 351.416 203.811 351.017C203.479 350.619 203.214 350.188 203.014 349.723C201.289 345.74 199.795 342.189 198.534 339.069C197.273 335.883 196.045 332.697 194.85 329.511C193.721 326.324 192.361 322.806 190.768 318.956C190.568 318.492 190.402 318.326 190.27 318.459C190.137 318.525 189.938 318.89 189.672 319.554C188.079 323.337 186.685 326.69 185.49 329.61C184.362 332.531 183.234 335.518 182.105 338.571C180.977 341.558 179.715 345.01 178.322 348.926C178.056 349.59 177.724 350.254 177.326 350.918C176.928 351.648 176.529 352.013 176.131 352.013Z" fill="currentColor"></path>
</svg>